<?xml version="1.0" encoding="utf-8"?>
<!-- Svg Vector Icons : http://www.onlinewebfonts.com/icon -->
<!DOCTYPE svg PUBLIC "-//W3C//DTD SVG 1.1//EN" "http://www.w3.org/Graphics/SVG/1.1/DTD/svg11.dtd">
<svg version="1.1" xmlns="http://www.w3.org/2000/svg" xmlns:xlink="http://www.w3.org/1999/xlink" x="0px" y="0px" viewBox="0 0 256 256" enable-background="new 0 0 256 256" xml:space="preserve">
<metadata> Svg Vector Icons : http://www.onlinewebfonts.com/icon </metadata>
<g><g><path fill="#000000" d="M174.1,118c-0.3-1.6-0.6-3.3-1-4.9C169.4,99,160,90.7,146.2,86.9c-1.7-0.5-3.4-0.4-5-1.1c10.7,0,21.3,0,32,0c0.8,0,1,0.2,1,1C174.1,97.2,174.1,107.6,174.1,118z"/><path fill="#000000" d="M10,224.7c0-1.9,0-2.5,0-3.7c0-54.8,0-109.6,0-164.4c0-11.5,5.5-19.7,15-22.3c2.9-0.8,5.8-1.1,8.8-1.1c39.3,0,78.7,0,118,0c3.3,0,4.4,0.4,2.5,3.8c-2.9,5.2-5.4,10.5-7.9,15.9c-1.1,2.3-2.5,2.9-4.9,2.9c-34.9-0.1-69.8,0-104.6-0.2c-3.7,0-4.4,1-4.4,4.5c0.1,53.2,0.1,106.4,0,159.6c0,3.7,1,4.4,4.5,4.4c53.2-0.1,106.4-0.1,159.6,0c4,0,4.5-1.4,4.5-4.8c-0.1-34.5,0-68.9-0.1-103.4c0-3,0.8-4.6,3.6-5.8c6.2-2.8,12.3-6,18.4-9.1c1,1.4,0.6,2.8,0.6,4c0,38.9,0,77.8,0,116.7c0,14.3-10.4,24.7-24.7,24.7c-56.3,0-112.6,0-168.9,0.1c-8.6,0-18-3.8-19.8-15.1C10,230.9,10,224.9,10,224.7z"/><path fill="#000000" d="M246,45.2c-5.4,3.8-9.4,9-14.2,13.5c-2.6,2.5-5,5.1-8.2,8.4c-1.7-21.6-13.8-31.8-33.7-34.1c3.6-7.2,7.1-14,10.4-20.9c0.9-1.9,9.1-2.7,9.6-2.7c0.6,0,2.7,0,3,0.1c13.3,1,21.6,8.9,27.6,20.1c2.3,4.2,3.3,8.9,5.4,13.2C246,43.6,246,44.4,246,45.2z"/><path fill="#000000" d="M183.8,44.2c10.3,0,17.6,4.4,22.5,12.7c1.3,2.2,2.3,4.6,3.2,6.9c3.5,8.5,2.9,15.1-4.7,22.3c-23.4,22.1-45.8,45.2-68.5,68c-2.1,2.1-4,2.6-6.7,1.7c-15.1-5-24.3-15.7-29.2-30.5c-0.6-1.7-0.1-2.7,1-3.9C126.8,96.2,152,71,177.2,45.8C179.4,43.6,182,44.7,183.8,44.2z"/><path fill="#000000" d="M88.6,134.8c11.2,11.3,21.9,22,32.9,33.2c-4,0-7.9,0-11.9,0c-6,0-12.1,0-18.1,0c-1.5,0-2.9,0.1-2.9-2.2C88.6,155.7,88.6,145.5,88.6,134.8z"/></g></g>
</svg>